<?xml version="1.0" encoding="utf-8"?>
<!-- Generator: Adobe Illustrator 19.0.0, SVG Export Plug-In . SVG Version: 6.00 Build 0)  -->
<svg version="1.1" id="vect.svg_1_" xmlns="http://www.w3.org/2000/svg" xmlns:xlink="http://www.w3.org/1999/xlink" x="0px"
	 y="0px" viewBox="0 0 150 150" style="enable-background:new 0 0 150 150;" xml:space="preserve">
<style type="text/css">
	.st0{fill:#5CB85C;}
</style>
<g id="vect.svg">
	<g>
		<path class="st0" d="M56.5,53.3c2.3,2.1,17.3,13.2,22.9,16.8c0,0,17.9-25.2,19-39.9S90.2,4.5,79.8,6.8c-8.8,2-9.9,7.2-14,7.5
			c-1,0.1-6.1-2.5-9.7-2.2c-6.5,0.5-14.1,6.8-14.6,16.8C41,36.9,50,47.5,56.5,53.3z M56.1,106.6c-1.7,1.4-3.9,5.8-9.1,11.7
			c-4.4,4.9-13,11.5-23,15.9c-10,4.4-15.7,2.4-15.7,2.4s-1.1,6.8-0.1,8c1.1,1.2,9.1-1.6,17.4-5.4c11.4-5.3,19.7-14,22.9-17.9
			c2.1-2.6,9.2-13.1,9.2-14C57.8,105.6,56.8,106,56.1,106.6z M145.7,72.4c-2-8.8-7.2-9.9-7.5-14c-0.1-1,2.5-6.1,2.2-9.7
			c-0.5-6.5-6.8-14.1-16.8-14.6c-7.9-0.4-18.5,8.6-24.4,15.1C97.1,51.5,86,66.4,82.5,72.1c0,0,25.2,17.9,39.9,19
			C137,92.2,148.1,82.8,145.7,72.4z M103.4,91.8c-2.3-2.1-17.3-13.2-22.9-16.8c0,0-17.9,25.2-19,39.9s8.3,25.7,18.7,23.4
			c8.8-2,9.9-7.2,14-7.5c1-0.1,6.1,2.5,9.7,2.2c6.5-0.5,14.1-6.8,14.6-16.8C118.9,108.3,109.9,97.7,103.4,91.8z M37.6,54.1
			C22.9,53,11.9,62.4,14.2,72.8c2,8.8,7.2,9.9,7.5,14c0.1,1-2.5,6.1-2.2,9.7c0.5,6.5,6.8,14.1,16.8,14.6c7.9,0.4,18.5-8.6,24.4-15.1
			c2.1-2.3,13.2-17.3,16.8-22.9C77.5,73.1,52.3,55.2,37.6,54.1z"/>
	</g>
</g>
</svg>
