<svg height="512pt" viewBox="-66 0 512 512.00102" width="512pt" xmlns="http://www.w3.org/2000/svg"><g fill-rule="evenodd"><path d="m110 142v208c0 11 9 20 20 20h220c11 0 20-9 20-20v-320c0-11-9-20-20-20h-220c-11 0-20 9-20 20zm93.753906 15.507812c10.007813-10.011718 26.238282-10.011718 36.246094 0 10.011719-10.011718 26.238281-10.011718 36.246094 0 10.011718 10.007813 10.011718 26.234376 0 36.246094l-36.246094 36.246094-36.246094-36.246094c-10.007812-10.011718-10.007812-26.238281 0-36.246094zm0 0" fill="#ffeeda"/><path d="m203.753906 157.507812c-10.007812 10.007813-10.007812 26.234376 0 36.246094l36.246094 36.246094 36.246094-36.246094c10.011718-10.011718 10.011718-26.238281 0-36.246094-10.007813-10.011718-26.234375-10.011718-36.246094 0-10.007812-10.011718-26.238281-10.011718-36.246094 0zm0 0" fill="#ff6359"/><path d="m110 174v-32h-80c-11 0-20 9-20 20v320c0 11 9 20 20 20h220c11 0 20-9 20-20v-112h-32v100h-196v-296zm0 0" fill="#ffa6d5"/><path d="m110 174h-68v296h196v-100h-108c-11 0-20-9-20-20zm0 0" fill="#f463a8"/></g><path d="m232.929688 237.070312c1.953124 1.953126 4.511718 2.929688 7.070312 2.929688s5.117188-.976562 7.070312-2.929688l36.246094-36.246093c6.730469-6.730469 10.4375-15.675781 10.4375-25.195313 0-9.515625-3.707031-18.464844-10.4375-25.191406-11.722656-11.726562-29.65625-13.558594-43.316406-5.488281-13.664062-8.070313-31.59375-6.238281-43.320312 5.488281-6.726563 6.726562-10.433594 15.675781-10.433594 25.191406 0 9.519532 3.703125 18.464844 10.433594 25.195313zm-22.105469-72.492187c3.046875-3.046875 7.050781-4.570313 11.054687-4.570313 4 0 8.003906 1.523438 11.050782 4.570313 3.90625 3.90625 10.238281 3.90625 14.140624 0 6.09375-6.09375 16.011719-6.09375 22.105469 0 2.953125 2.953125 4.578125 6.875 4.578125 11.050781 0 4.175782-1.625 8.101563-4.578125 11.050782l-29.175781 29.179687-29.175781-29.179687c-2.949219-2.949219-4.578125-6.875-4.578125-11.050782 0-4.175781 1.628906-8.097656 4.578125-11.050781zm0 0"/><path d="m308.382812 77.378906c3.453126 0 6.816407-1.796875 8.667969-5.003906l7.144531-12.375 7.144532 12.375c2.761718 4.78125 8.875 6.421875 13.660156 3.660156 4.78125-2.761718 6.421875-8.878906 3.660156-13.660156l-15.804687-27.375c-1.785157-3.09375-5.085938-5-8.660157-5-3.574218 0-6.875 1.90625-8.660156 5l-15.804687 27.375c-2.761719 4.78125-1.125 10.898438 3.660156 13.660156 1.574219.910156 3.292969 1.34375 4.992187 1.34375zm0 0"/><path d="m135.003906 303.964844c-4.785156 2.757812-6.421875 8.875-3.660156 13.660156l15.804688 27.375c1.785156 3.09375 5.085937 5 8.660156 5 3.570312 0 6.871094-1.90625 8.660156-5l15.804688-27.375c2.761718-4.785156 1.121093-10.902344-3.660157-13.660156-4.785156-2.761719-10.898437-1.125-13.660156 3.660156l-7.144531 12.375-7.144532-12.375c-2.761718-4.785156-8.878906-6.425781-13.660156-3.660156zm0 0"/><path d="m350 0h-140c-5.523438 0-10 4.476562-10 10s4.476562 10 10 10h140c5.515625 0 10 4.484375 10 10v320c0 5.511719-4.484375 10-10 10h-220c-5.515625 0-10-4.488281-10-10v-320c0-5.515625 4.484375-10 10-10h11.035156c5.523438 0 10-4.476562 10-10s-4.476562-10-10-10h-11.035156c-16.542969 0-30 13.457031-30 30v102h-70c-16.542969 0-30 13.460938-30 30v320c0 16.542969 13.457031 30 30 30h220c16.542969 0 30-13.457031 30-30v-102h70c16.542969 0 30-13.457031 30-30v-320c0-16.542969-13.457031-30-30-30zm-220 380h98v80h-176v-276h48v166c0 16.542969 13.460938 30 30 30zm130 102c0 5.515625-4.484375 10-10 10h-220c-5.511719 0-10-4.484375-10-10v-320c0-5.511719 4.488281-10 10-10h70v12h-58c-5.523438 0-10 4.476562-10 10v296c0 5.523438 4.476562 10 10 10h196c5.523438 0 10-4.476562 10-10v-90h12zm0 0"/><path d="m169.765625 20h.269531c5.523438 0 10-4.476562 10-10s-4.476562-10-10-10h-.269531c-5.523437 0-10 4.476562-10 10s4.476563 10 10 10zm0 0"/><path d="m147.964844 450h.269531c5.523437 0 10-4.476562 10-10s-4.476563-10-10-10h-.269531c-5.523438 0-10 4.476562-10 10s4.476562 10 10 10zm0 0"/><path d="m176.964844 450h31.035156c5.523438 0 10-4.476562 10-10s-4.476562-10-10-10h-31.035156c-5.523438 0-10 4.476562-10 10s4.476562 10 10 10zm0 0"/></svg>