<?xml version="1.0" encoding="iso-8859-1"?>
<!-- Generator: Adobe Illustrator 19.0.0, SVG Export Plug-In . SVG Version: 6.00 Build 0)  -->
<svg version="1.1" id="Capa_1" xmlns="http://www.w3.org/2000/svg" xmlns:xlink="http://www.w3.org/1999/xlink" x="0px" y="0px"
	 viewBox="0 0 511.993 511.993" style="enable-background:new 0 0 511.993 511.993;" xml:space="preserve">
<path style="fill:#E2A91B;" d="M278.153,95.677l-19.675,19.675c-13.039,13.039-43.722,3.497-68.533-21.314
	s-34.353-55.493-21.314-68.533L188.307,5.83"/>
<path style="fill:#FFDDB0;" d="M366.188,390.368c5.109-5.109,8.257-12.16,8.257-19.955c0-7.785-3.148-14.835-8.257-19.945
	c-3.903-3.903-8.928-6.652-14.562-7.743h-14.006c15.57-0.011,28.191-12.632,28.191-28.202c0-7.785-3.158-14.835-8.267-19.945
	c-5.109-5.109-12.16-8.267-19.945-8.267l-113.247-0.22c3.022-3.567,5.886-7.617,8.572-11.981
	c10.597-17.185,18.591-39.312,23.512-56.487c4.9-17.101-4.994-34.927-22.095-39.826c-17.112-4.9-34.937,4.994-39.826,22.095
	c-2.046,7.113-7.648,15.591-13.356,22.935c-6.935,8.918-15.255,16.64-24.425,23.229c-14.72,10.565-41.757,35.325-40.771,74.103
	c0,34.906,0,84.028,0,84.028c0,68.888,70.504,107.802,131.167,107.802h79.097c7.785,0,14.846-3.158,19.955-8.257
	c5.088-5.109,8.257-12.17,8.257-19.945c0-15.591-12.632-28.212-28.212-28.212l11.52-0.525c7.795,0,14.846-3.158,19.955-8.267
	c5.109-5.099,8.257-12.149,8.257-19.945c0-7.785-3.147-14.846-8.257-19.955c-5.109-5.088-12.16-8.257-19.955-8.257h8.498
	C354.028,398.625,361.078,395.478,366.188,390.368z"/>
<g>
	<path style="fill:#E2BE91;" d="M346.179,486.946c-5.107,5.095-12.169,8.26-19.95,8.26h-79.102
		c-60.663,0-131.169-38.916-131.169-107.802c0,10.137,0,16.787,0,16.787c0,68.887,70.506,107.802,131.169,107.802h79.102
		c7.781,0,14.841-3.165,19.95-8.26c5.095-5.107,8.26-12.168,8.26-19.949c0-2.925-0.445-5.746-1.272-8.399
		C351.792,479.8,349.362,483.755,346.179,486.946z"/>
	<path style="fill:#E2BE91;" d="M299.037,446.653c0,4.635,3.758,8.393,8.393,8.393h30.32c7.781,0,14.841-3.165,19.95-8.26
		c5.095-5.107,8.26-12.168,8.26-19.949c0-2.925-0.445-5.746-1.272-8.399c-1.375,4.416-3.805,8.37-6.988,11.561
		c-5.107,5.095-12.169,8.26-19.95,8.26h-30.32C302.795,438.26,299.037,442.017,299.037,446.653L299.037,446.653z"/>
	<path style="fill:#E2BE91;" d="M307.525,390.234c0,4.635,3.758,8.393,8.393,8.393h30.32c7.781,0,14.841-3.165,19.95-8.26
		c5.095-5.107,8.26-12.168,8.26-19.949c0-2.925-0.445-5.746-1.272-8.399c-1.375,4.416-3.805,8.37-6.989,11.561
		c-5.107,5.095-12.169,8.26-19.95,8.26h-30.32C311.283,381.841,307.525,385.598,307.525,390.234L307.525,390.234z"/>
	<path style="fill:#E2BE91;" d="M298.905,334.335c0,4.635,3.758,8.393,8.393,8.393h30.32c7.781,0,14.841-3.165,19.95-8.26
		c5.095-5.107,8.26-12.168,8.26-19.949c0-2.925-0.445-5.746-1.272-8.399c-1.375,4.416-3.805,8.37-6.988,11.561
		c-5.107,5.095-12.169,8.26-19.95,8.26h-30.32C302.663,325.941,298.905,329.699,298.905,334.335L298.905,334.335z"/>
	<path style="fill:#E2BE91;" d="M210.093,401.773h-0.346c0.126,0,0.241,0,0.367,0.01
		C210.103,401.773,210.103,401.762,210.093,401.773z M198.563,458.711l-0.336,0.01c0.126,0,0.252,0,0.378,0.01
		C198.594,458.721,198.573,458.711,198.563,458.711z M234.336,177.795c-17.112-4.9-34.937,4.994-39.826,22.095
		c-2.046,7.113-7.648,15.591-13.356,22.935c-6.935,8.918-15.255,16.64-24.425,23.229c-14.541,10.439-41.096,34.717-40.792,72.686
		c0-37.885,38.84-59.099,53.382-69.539c9.17-6.589,17.49-14.311,24.425-23.229c5.707-7.344,11.31-15.821,13.356-22.935
		c4.176-14.594,17.773-23.942,32.304-23.323C237.798,178.949,236.099,178.298,234.336,177.795z"/>
	<path style="fill:#E2BE91;" d="M201.322,342.401c1.406-0.22,2.77-0.535,4.092-0.944
		C204.092,341.876,202.728,342.191,201.322,342.401z"/>
	<path style="fill:#E2BE91;" d="M223.963,306.12c0.136,0.451,0.273,0.902,0.378,1.364c-0.115-0.451-0.241-0.892-0.388-1.332v-0.011
		C223.963,306.131,223.963,306.131,223.963,306.12z"/>
</g>
<ellipse transform="matrix(0.7071 -0.7071 0.7071 0.7071 32.4215 179.7855)" style="fill:#FCC938;" cx="233.231" cy="50.757" rx="33.388" ry="63.526"/>
<g>
	<path style="fill:#F2F2F2;" d="M293.256,200.186c-2.353,0-4.681-1.051-6.231-3.058c-2.658-3.438-2.024-8.381,1.415-11.038
		c38.172-29.493,45.232-84.543,15.74-122.714c-2.658-3.439-2.024-8.381,1.415-11.038c3.438-2.656,8.381-2.024,11.038,1.416
		c34.799,45.038,26.468,109.99-18.569,144.789C296.63,199.65,294.936,200.186,293.256,200.186z"/>
	<path style="fill:#F2F2F2;" d="M340.868,248.456c-2.353,0-4.681-1.051-6.231-3.058c-2.658-3.439-2.024-8.381,1.415-11.038
		c49.763-38.449,58.967-110.214,20.519-159.977c-2.658-3.439-2.024-8.381,1.415-11.038c3.438-2.656,8.381-2.024,11.038,1.416
		c43.754,56.63,33.281,138.298-23.348,182.052C344.241,247.92,342.548,248.456,340.868,248.456z"/>
</g>
<path style="fill:#E2BE91;" d="M232.923,274.11c-2.686,4.365-5.55,8.414-8.572,11.981h-17.678c-3.305,0-5.991-2.686-5.991-5.991
	c0-1.647,0.671-3.147,1.752-4.239c1.091-1.081,2.591-1.752,4.239-1.752H232.923z"/>
<g>
</g>
<g>
</g>
<g>
</g>
<g>
</g>
<g>
</g>
<g>
</g>
<g>
</g>
<g>
</g>
<g>
</g>
<g>
</g>
<g>
</g>
<g>
</g>
<g>
</g>
<g>
</g>
<g>
</g>
</svg>
