<?xml version="1.0" encoding="iso-8859-1"?>
<!-- Generator: Adobe Illustrator 19.0.0, SVG Export Plug-In . SVG Version: 6.00 Build 0)  -->
<svg version="1.1" id="Layer_1" xmlns="http://www.w3.org/2000/svg" xmlns:xlink="http://www.w3.org/1999/xlink" x="0px" y="0px"
	 viewBox="0 0 489.3 489.3" style="enable-background:new 0 0 489.3 489.3;" xml:space="preserve">
<g>
	<g>
		<path id="XMLID_1828_" style="fill:#A7A9AC;" d="M480.1,451.7v-24.5c0-5.2-2.3-10.1-6.3-13.4c-22.2-18.2-46.1-30.3-51-32.7
			c-0.5-0.3-0.9-0.8-0.9-1.4v-34.5c4.3-2.9,7.2-7.8,7.2-13.4V296c0-17.8-14.4-32.3-32.3-32.3h-3.9H389c-17.8,0-32.3,14.4-32.3,32.3
			v35.6c0,5.6,2.9,10.5,7.2,13.4v34.6c0,0.6-0.3,1.2-0.9,1.4c-4.9,2.4-28.8,14.5-51,32.7c-4,3.3-6.3,8.2-6.3,13.4v24.5"/>
		<path id="XMLID_1827_" style="fill:#3C92CA;" d="M183.1,451.7v-24.5c0-5.2-2.3-10.1-6.3-13.4c-22.2-18.2-46.1-30.3-51-32.7
			c-0.5-0.3-0.9-0.8-0.9-1.4v-34.5c4.3-2.9,7.2-7.8,7.2-13.4V296c0-17.8-14.4-32.3-32.3-32.3h-3.9H92c-17.8,0-32.3,14.4-32.3,32.3
			v35.6c0,5.6,2.9,10.5,7.2,13.4v34.6c0,0.6-0.3,1.2-0.9,1.4c-4.9,2.4-28.8,14.5-51,32.7c-4,3.3-6.3,8.2-6.3,13.4v24.5"/>
		<path d="M245.3,235.3c-5,0-9.1,4.1-9.1,9.1v57.4l-49.7,28.7c-4.3,2.5-5.8,8-3.3,12.4c1.7,2.9,4.7,4.5,7.9,4.5
			c1.5,0,3.1-0.4,4.5-1.2l49.7-28.7l49.7,28.7c1.4,0.8,3,1.2,4.5,1.2c3.1,0,6.2-1.6,7.9-4.5c2.5-4.3,1-9.9-3.3-12.4l-49.7-28.7
			v-57.4C254.3,239.4,250.3,235.3,245.3,235.3z"/>
		<path d="M206.5,149c-9.2,4.8-29.5,16.1-48.6,31.7c-6.1,5-9.6,12.5-9.6,20.4v24.5c0,5,4.1,9.1,9.1,9.1s9.1-4.1,9.1-9.1v-24.5
			c0-2.5,1.1-4.8,3-6.4c21.5-17.6,44.8-29.4,49.2-31.6c3.7-1.8,6-5.5,6-9.6V119c0-3-1.5-5.9-4-7.5c-2-1.3-3.2-3.5-3.2-5.9V69.8
			c0-12.8,10.4-23.2,23.2-23.2h7.7c12.8,0,23.2,10.4,23.2,23.2v35.8c0,2.4-1.2,4.6-3.2,5.9c-2.5,1.7-4,4.5-4,7.5v34.6
			c0,4.1,2.3,7.8,6,9.6c4.5,2.2,27.7,13.9,49.2,31.6c1.9,1.6,3,3.9,3,6.4v24.5c0,5,4.1,9.1,9.1,9.1s9.1-4.1,9.1-9.1v-24.5
			c0-7.9-3.5-15.4-9.6-20.4c-19-15.6-39.4-27-48.6-31.7v-25.8c4.6-4.7,7.2-11,7.2-17.6V69.8c0-22.8-18.5-41.3-41.3-41.3h-7.7
			c-22.8,0-41.3,18.5-41.3,41.3v35.8c0,6.7,2.6,13,7.2,17.6V149H206.5z"/>
		<path d="M92.2,272.6h7.7c12.8,0,23.2,10.4,23.2,23.2v35.8c0,2.4-1.2,4.6-3.2,5.9c-2.5,1.7-4,4.5-4,7.5v34.6c0,4.1,2.3,7.8,6,9.6
			c4.5,2.2,27.7,13.9,49.2,31.6c1.9,1.6,3,3.9,3,6.4v24.5c0,5,4.1,9.1,9.1,9.1s9.1-4.1,9.1-9.1v-24.5c0-7.9-3.5-15.4-9.6-20.4
			c-19-15.6-39.4-27-48.6-31.7v-25.8c4.6-4.7,7.2-11,7.2-17.6v-35.8c0-22.8-18.5-41.3-41.3-41.3h-7.7c-22.8,0-41.3,18.5-41.3,41.3
			v35.7c0,6.7,2.6,13,7.2,17.6V375c-9.2,4.8-29.5,16.1-48.6,31.7c-6.1,5-9.6,12.5-9.6,20.4v24.5c0,5,4.1,9.1,9.1,9.1
			s9.1-4.1,9.1-9.1v-24.5c0-2.5,1.1-4.8,3-6.4c21.5-17.6,44.8-29.4,49.2-31.6c3.7-1.8,6-5.5,6-9.6V345c0-3-1.5-5.9-4-7.5
			c-2-1.3-3.2-3.5-3.2-5.9v-35.8C69,283,79.4,272.6,92.2,272.6z"/>
		<path d="M306.4,406.7c-6.1,5-9.6,12.5-9.6,20.4v24.5c0,5,4.1,9.1,9.1,9.1s9.1-4.1,9.1-9.1v-24.5c0-2.5,1.1-4.8,3-6.4
			c21.5-17.6,44.8-29.4,49.2-31.6c3.7-1.8,6-5.5,6-9.6V345c0-3-1.5-5.9-4-7.5c-2-1.3-3.2-3.5-3.2-5.9v-35.8
			c0-12.8,10.4-23.2,23.2-23.2h7.7c12.8,0,23.2,10.4,23.2,23.2v35.8c0,2.4-1.2,4.6-3.2,5.9c-2.5,1.7-4,4.5-4,7.5v34.6
			c0,4.1,2.3,7.8,6,9.6c4.5,2.2,27.7,13.9,49.2,31.6c1.9,1.6,3,3.9,3,6.4v24.5c0,5,4.1,9.1,9.1,9.1s9.1-4.1,9.1-9.1v-24.5
			c0-7.9-3.5-15.4-9.6-20.4c-19-15.6-39.4-27-48.6-31.7v-25.8c4.6-4.7,7.2-11,7.2-17.6v-35.8c0-22.8-18.5-41.3-41.3-41.3h-7.7
			c-22.8,0-41.3,18.5-41.3,41.3v35.7c0,6.7,2.6,13,7.2,17.6V375C345.8,379.8,325.5,391.1,306.4,406.7z"/>
	</g>
</g>
<g>
</g>
<g>
</g>
<g>
</g>
<g>
</g>
<g>
</g>
<g>
</g>
<g>
</g>
<g>
</g>
<g>
</g>
<g>
</g>
<g>
</g>
<g>
</g>
<g>
</g>
<g>
</g>
<g>
</g>
</svg>
