<?xml version="1.0" encoding="iso-8859-1"?>
<!-- Generator: Adobe Illustrator 19.0.0, SVG Export Plug-In . SVG Version: 6.00 Build 0)  -->
<svg version="1.1" id="Capa_1" xmlns="http://www.w3.org/2000/svg" xmlns:xlink="http://www.w3.org/1999/xlink" x="0px" y="0px"
	 viewBox="0 0 512 512" style="enable-background:new 0 0 512 512;" xml:space="preserve">
<g>
	<circle style="fill:#D3CDBF;" cx="94.128" cy="298.878" r="27.909"/>
	<circle style="fill:#D3CDBF;" cx="167.198" cy="299.893" r="27.909"/>
	<circle style="fill:#D3CDBF;" cx="132.469" cy="359.496" r="27.909"/>
	<circle style="fill:#D3CDBF;" cx="133.708" cy="235.956" r="27.909"/>
	<circle style="fill:#D3CDBF;" cx="329.587" cy="304.967" r="27.909"/>
	<circle style="fill:#D3CDBF;" cx="401.653" cy="298.878" r="27.909"/>
	<circle style="fill:#D3CDBF;" cx="376.058" cy="367.615" r="27.909"/>
	<circle style="fill:#D3CDBF;" cx="436.95" cy="235.956" r="27.909"/>
	<circle style="fill:#D3CDBF;" cx="364.103" cy="235.956" r="27.909"/>
	<circle style="fill:#D3CDBF;" cx="400.638" cy="168.965" r="27.909"/>
</g>
<path style="fill:#35404A;" d="M484.344,228.345h-0.139c-1.811-55.607-23.417-107.772-61.458-148.371l0.098-0.098
	c2.973-2.974,2.973-7.792,0-10.765c-2.974-2.972-7.792-2.972-10.765,0l-0.098,0.098c-40.6-38.041-92.764-59.649-148.371-61.458
	V7.611c0-4.205-3.407-7.611-7.611-7.611c-4.205,0-7.612,3.407-7.612,7.611v0.139C192.78,9.56,140.616,31.168,100.016,69.208
	l-0.098-0.098c-2.974-2.972-7.792-2.972-10.765,0c-2.973,2.974-2.973,7.792,0,10.765l0.098,0.098
	c-38.041,40.601-59.649,92.765-61.458,148.372h-0.139c-4.205,0-7.611,3.407-7.611,7.611c0,4.205,3.407,7.611,7.611,7.611h0.139
	c1.81,55.608,23.417,107.772,61.458,148.371l-0.098,0.098c-2.973,2.974-2.973,7.792,0,10.765c1.487,1.486,3.435,2.229,5.383,2.229
	s3.896-0.743,5.383-2.229l0.098-0.098C142.465,442.477,197.552,464.3,256,464.3s113.535-21.824,155.983-61.596l0.098,0.098
	c1.487,1.486,3.435,2.229,5.383,2.229s3.896-0.743,5.383-2.229c2.973-2.974,2.973-7.792,0-10.765l-0.098-0.098
	c38.041-40.6,59.648-92.765,61.458-148.371h0.139c4.205,0,7.612-3.407,7.612-7.611C491.957,231.752,488.549,228.345,484.344,228.345
	z M468.972,228.345H274.375l137.53-137.53C445.766,127.164,467.098,175.318,468.972,228.345z M263.611,22.985
	c53.028,1.871,101.181,23.205,137.53,57.065L263.611,217.58V22.985z M248.388,22.985v194.594L110.858,80.051
	C147.206,46.19,195.36,24.857,248.388,22.985z M100.093,90.815l137.53,137.53H43.027C44.9,175.317,66.232,127.164,100.093,90.815z
	 M43.027,243.568h194.595l-137.529,137.53C66.232,344.749,44.9,296.596,43.027,243.568z M255.999,449.078
	c-56.026,0-107.06-21.741-145.141-57.216l145.141-145.141L401.14,391.862C363.059,427.337,312.025,449.078,255.999,449.078z
	 M411.905,381.098l-137.53-137.53h194.596C467.098,296.595,445.766,344.749,411.905,381.098z"/>
<path style="fill:#5C87BD;" d="M298.43,219.061c-6.731-16.844-23.213-28.773-42.431-28.773s-35.7,11.931-42.431,28.775
	C97.362,509.871,103.769,492.407,103.769,496.777c0,8.407,6.816,15.223,15.223,15.223h274.014c8.407,0,15.223-6.816,15.223-15.223
	C408.229,492.406,414.625,509.841,298.43,219.061z"/>
<path style="fill:#3F5F94;" d="M278.367,196.157c-9.438,8.268-13.13,21.886-8.209,34.2c29.056,72.711,50.446,126.152,66.189,165.482
	c11.148,27.852,19.614,49.003,25.941,64.856c3.99,9.997-3.376,20.859-14.141,20.859H108.69c-6.47,16.588-4.674,13.04-4.955,15.814
	C102.923,505.43,108.649,512,116.751,512h278.372c8.122,0,13.904-6.591,13.133-14.676c-0.619-6.497,10.394,22.596-109.828-278.263
	C294.544,209.336,287.403,201.256,278.367,196.157z"/>
<path style="fill:#35404A;" d="M318.664,372.151c-13.024-32.545-29.389-73.449-49.942-124.888c-1.56-3.904-5.988-5.8-9.893-4.244
	c-3.903,1.56-5.804,5.989-4.244,9.893c20.555,51.442,36.92,92.347,49.946,124.894c1.19,2.977,4.048,4.786,7.069,4.786
	c0.942,0,1.899-0.176,2.825-0.547C318.328,380.483,320.226,376.054,318.664,372.151z"/>
<g>
	<path style="fill:#FFF9EB;" d="M255.999,251.179c-8.394,0-15.223-6.829-15.223-15.223c0-1.416,0.19-2.806,0.566-4.133
		c0.075-0.266,0.16-0.535,0.251-0.796c0.064-0.188,0.106-0.299,0.148-0.412l0.097-0.247c1.919-4.8,7.039-9.635,14.161-9.635
		c7.122,0,12.243,4.835,14.157,9.625c0.706,1.768,1.066,3.653,1.066,5.598C271.222,244.35,264.393,251.179,255.999,251.179z"/>
	<path style="fill:#FFF9EB;" d="M322.217,415.713c-5.638,0-10.972-3.378-13.194-8.933l-4.546-11.355l-6.069-15.165
		c-2.917-7.285,0.625-15.554,7.911-18.47c1.73-0.694,3.519-1.022,5.275-1.022c5.638,0,10.972,3.379,13.194,8.933l6.07,15.164
		l4.546,11.356c2.917,7.285-0.625,15.554-7.911,18.47C325.762,415.385,323.974,415.713,322.217,415.713z"/>
</g>
<g>
</g>
<g>
</g>
<g>
</g>
<g>
</g>
<g>
</g>
<g>
</g>
<g>
</g>
<g>
</g>
<g>
</g>
<g>
</g>
<g>
</g>
<g>
</g>
<g>
</g>
<g>
</g>
<g>
</g>
</svg>
