<svg height="512pt" viewBox="0 -1 512 512" width="512pt" xmlns="http://www.w3.org/2000/svg"><g fill="#ffea77"><path d="m9.996094 10h99.933594v60h-99.933594zm0 0"/><path d="m9.996094 154h99.933594v60h-99.933594zm0 0"/><path d="m198.898438 82.019531h99.933593v60h-99.933593zm0 0"/><path d="m402.070312 226h99.9375v60h-99.9375zm0 0"/><path d="m9.996094 296h99.933594v60h-99.933594zm0 0"/><path d="m9.996094 440h99.933594v60h-99.933594zm0 0"/><path d="m198.898438 368.019531h99.933593v60h-99.933593zm0 0"/></g><path d="m370.046875 266c-5.519531 0-10-4.476562-10-10s4.46875-10 9.988281-10h.011719c5.519531 0 9.992187 4.476562 9.992187 10s-4.476562 10-9.992187 10zm0 0"/><path d="m502.007812 296h-99.933593c-5.519531 0-9.996094-4.476562-9.996094-10v-60c0-5.523438 4.476563-10 9.996094-10h99.933593c5.519532 0 9.992188 4.476562 9.992188 10v60c0 5.523438-4.476562 10-9.992188 10zm-89.941406-20h79.945313v-40h-79.945313zm0 0"/><path d="m340.40625 101.628906h-31.578125v-19.609375c0-5.519531-4.476563-10-9.992187-10h-99.9375c-5.515626 0-9.992188 4.480469-9.992188 10v20h-27.332031v-62c0-5.519531-4.476563-10-9.992188-10h-31.660156v-20.019531c0-5.519531-4.464844-10-9.992187-10h-99.9375c-5.515626 0-9.992188 4.480469-9.992188 10v60c0 5.519531 4.476562 10 9.992188 10h99.933593c5.527344 0 9.996094-4.480469 9.996094-10v-19.980469h21.664063v124h-21.664063v-20.019531c0-5.519531-4.46875-10-9.996094-10h-99.933593c-5.515626 0-9.992188 4.480469-9.992188 10v60c0 5.519531 4.476562 10 9.992188 10h99.933593c5.527344 0 9.996094-4.480469 9.996094-10v-19.980469h31.65625c5.515625 0 9.992187-4.480469 9.992187-10v-62h27.332032v20c0 5.519531 4.480468 10 9.996094 10h99.933593c5.515625 0 9.992188-4.480469 9.992188-10v-20.390625h21.585937v268h-21.585937v-21.609375c0-5.519531-4.476563-10-9.992188-10h-99.933593c-5.515626 0-9.996094 4.480469-9.996094 10v20h-27.332032v-62c0-5.519531-4.476562-10-9.992187-10h-31.65625v-20.019531c0-5.519531-4.46875-10-9.996094-10h-99.933593c-5.515626 0-9.992188 4.480469-9.992188 10v60c0 5.519531 4.476562 10 9.992188 10h99.933593c5.527344 0 9.996094-4.480469 9.996094-10v-19.980469h21.664063v124h-21.664063v-20.019531c0-5.519531-4.46875-10-9.996094-10h-99.933593c-5.515626 0-9.992188 4.480469-9.992188 10v60c0 5.519531 4.476562 10 9.992188 10h99.933593c5.527344 0 9.996094-4.480469 9.996094-10v-19.980469h31.65625c5.515625 0 9.992187-4.480469 9.992187-10v-62h27.332032v20c0 5.519531 4.480468 10 9.996094 10h99.933593c5.515625 0 9.992188-4.480469 9.992188-10v-18.390625h31.578125c5.515625 0 9.992187-4.480468 9.992187-10v-288c.003907-5.519531-4.472656-10-9.988281-10zm-240.472656-41.628906h-79.945313v-40h79.945313zm0 144h-79.945313v-40h79.945313zm188.90625-71.980469h-79.945313v-40h79.945313zm-188.90625 213.980469h-79.945313v-40h79.945313zm0 144h-79.945313v-40h79.945313zm188.90625-71.980469h-79.945313v-40h79.945313zm0 0"/></svg>